<mxfile host="Electron" modified="2023-05-14T06:49:08.813Z" agent="Mozilla/5.0 (Windows NT 10.0; Win64; x64) AppleWebKit/537.36 (KHTML, like Gecko) draw.io/21.2.1 Chrome/112.0.5615.87 Electron/24.1.2 Safari/537.36" etag="e_WfU76j0My6ulNMgW9_" version="21.2.1" type="device">
  <diagram name="第 1 页" id="syCugjobdyrzji9kPTb7">
    <mxGraphModel dx="898" dy="579" grid="1" gridSize="10" guides="1" tooltips="1" connect="1" arrows="1" fold="1" page="1" pageScale="1" pageWidth="827" pageHeight="1169" math="0" shadow="0">
      <root>
        <mxCell id="0" />
        <mxCell id="1" parent="0" />
        <mxCell id="zF56eZWgSTWICu8YLRrB-8" style="edgeStyle=orthogonalEdgeStyle;rounded=0;orthogonalLoop=1;jettySize=auto;html=1;exitX=1;exitY=0.25;exitDx=0;exitDy=0;entryX=0;entryY=0.25;entryDx=0;entryDy=0;strokeWidth=2;strokeColor=#3333FF;" edge="1" parent="1" source="zF56eZWgSTWICu8YLRrB-1" target="zF56eZWgSTWICu8YLRrB-3">
          <mxGeometry relative="1" as="geometry" />
        </mxCell>
        <mxCell id="zF56eZWgSTWICu8YLRrB-1" value="" style="whiteSpace=wrap;html=1;aspect=fixed;fillColor=#dae8fc;strokeColor=#6c8ebf;shadow=1;" vertex="1" parent="1">
          <mxGeometry x="240" y="200" width="280" height="280" as="geometry" />
        </mxCell>
        <mxCell id="zF56eZWgSTWICu8YLRrB-2" value="&lt;b&gt;&lt;font color=&quot;#333333&quot; style=&quot;font-size: 18px;&quot;&gt;浏览器&lt;/font&gt;&lt;/b&gt;" style="text;html=1;strokeColor=none;fillColor=none;align=center;verticalAlign=middle;whiteSpace=wrap;rounded=0;" vertex="1" parent="1">
          <mxGeometry x="250" y="210" width="60" height="30" as="geometry" />
        </mxCell>
        <mxCell id="zF56eZWgSTWICu8YLRrB-10" style="edgeStyle=orthogonalEdgeStyle;rounded=0;orthogonalLoop=1;jettySize=auto;html=1;exitX=0;exitY=0.5;exitDx=0;exitDy=0;entryX=1;entryY=0.5;entryDx=0;entryDy=0;strokeWidth=2;strokeColor=#F6832B;" edge="1" parent="1">
          <mxGeometry relative="1" as="geometry">
            <mxPoint x="900" y="292" as="sourcePoint" />
            <mxPoint x="520" y="292" as="targetPoint" />
          </mxGeometry>
        </mxCell>
        <mxCell id="zF56eZWgSTWICu8YLRrB-3" value="" style="whiteSpace=wrap;html=1;aspect=fixed;fillColor=#d5e8d4;strokeColor=#82b366;shadow=1;" vertex="1" parent="1">
          <mxGeometry x="900" y="200" width="280" height="280" as="geometry" />
        </mxCell>
        <mxCell id="zF56eZWgSTWICu8YLRrB-4" value="&lt;p style=&quot;line-height: 200%;&quot;&gt;&lt;b style=&quot;font-size: 16px;&quot;&gt;&lt;font color=&quot;#ffffff&quot;&gt;身份认证的&lt;br&gt;Cookie&lt;/font&gt;&lt;/b&gt;&lt;/p&gt;" style="shape=hexagon;perimeter=hexagonPerimeter2;whiteSpace=wrap;html=1;fixedSize=1;fillColor=#f6832b;strokeColor=#FFFFFF;fontColor=#000000;strokeWidth=3;" vertex="1" parent="1">
          <mxGeometry x="380" y="380" width="120" height="80" as="geometry" />
        </mxCell>
        <mxCell id="zF56eZWgSTWICu8YLRrB-5" value="&lt;font size=&quot;1&quot; color=&quot;#333333&quot;&gt;&lt;b style=&quot;font-size: 16px;&quot;&gt;保存到浏览器中&lt;/b&gt;&lt;/font&gt;" style="text;html=1;strokeColor=none;fillColor=none;align=center;verticalAlign=middle;whiteSpace=wrap;rounded=0;" vertex="1" parent="1">
          <mxGeometry x="372" y="350" width="136" height="30" as="geometry" />
        </mxCell>
        <mxCell id="zF56eZWgSTWICu8YLRrB-6" value="&lt;b&gt;&lt;font color=&quot;#333333&quot; style=&quot;font-size: 18px;&quot;&gt;服务器&lt;/font&gt;&lt;/b&gt;" style="text;html=1;strokeColor=none;fillColor=none;align=center;verticalAlign=middle;whiteSpace=wrap;rounded=0;" vertex="1" parent="1">
          <mxGeometry x="910" y="210" width="60" height="30" as="geometry" />
        </mxCell>
        <mxCell id="zF56eZWgSTWICu8YLRrB-7" value="&lt;p style=&quot;line-height: 105%;&quot;&gt;&lt;font color=&quot;#ffffff&quot;&gt;&lt;span style=&quot;font-size: 16px;&quot;&gt;&lt;b&gt;服务器根据请求头&lt;/b&gt;&lt;/span&gt;&lt;/font&gt;&lt;/p&gt;&lt;p style=&quot;line-height: 109%;&quot;&gt;&lt;font color=&quot;#ffffff&quot;&gt;&lt;span style=&quot;font-size: 16px;&quot;&gt;&lt;b&gt;中的Cookie，验明用户&lt;/b&gt;&lt;/span&gt;&lt;/font&gt;&lt;/p&gt;&lt;p style=&quot;line-height: 109%;&quot;&gt;&lt;font color=&quot;#ffffff&quot;&gt;&lt;span style=&quot;font-size: 16px;&quot;&gt;&lt;b&gt;的身份&lt;/b&gt;&lt;/span&gt;&lt;/font&gt;&lt;/p&gt;" style="shape=hexagon;perimeter=hexagonPerimeter2;whiteSpace=wrap;html=1;fixedSize=1;fillColor=#6aa042;strokeColor=#FFFFFF;fontColor=#000000;strokeWidth=3;" vertex="1" parent="1">
          <mxGeometry x="920" y="360" width="180" height="100" as="geometry" />
        </mxCell>
        <mxCell id="zF56eZWgSTWICu8YLRrB-9" value="&lt;b&gt;&lt;font style=&quot;font-size: 16px;&quot;&gt;登录请求&lt;/font&gt;&lt;/b&gt;" style="text;html=1;strokeColor=none;fillColor=none;align=center;verticalAlign=middle;whiteSpace=wrap;rounded=0;" vertex="1" parent="1">
          <mxGeometry x="660" y="240" width="100" height="30" as="geometry" />
        </mxCell>
        <mxCell id="zF56eZWgSTWICu8YLRrB-11" value="&lt;b&gt;&lt;font style=&quot;font-size: 16px;&quot;&gt;通过&lt;font color=&quot;#ff0000&quot;&gt;响应头&lt;/font&gt;，发送Cookie给浏览器&lt;/font&gt;&lt;/b&gt;" style="text;html=1;strokeColor=none;fillColor=none;align=center;verticalAlign=middle;whiteSpace=wrap;rounded=0;" vertex="1" parent="1">
          <mxGeometry x="570" y="292" width="280" height="30" as="geometry" />
        </mxCell>
        <mxCell id="zF56eZWgSTWICu8YLRrB-13" style="edgeStyle=orthogonalEdgeStyle;rounded=0;orthogonalLoop=1;jettySize=auto;html=1;exitX=1;exitY=0.25;exitDx=0;exitDy=0;entryX=0;entryY=0.25;entryDx=0;entryDy=0;strokeWidth=2;strokeColor=#3333FF;" edge="1" parent="1">
          <mxGeometry relative="1" as="geometry">
            <mxPoint x="520" y="401" as="sourcePoint" />
            <mxPoint x="900" y="401" as="targetPoint" />
          </mxGeometry>
        </mxCell>
        <mxCell id="zF56eZWgSTWICu8YLRrB-14" style="edgeStyle=orthogonalEdgeStyle;rounded=0;orthogonalLoop=1;jettySize=auto;html=1;exitX=0;exitY=0.5;exitDx=0;exitDy=0;entryX=1;entryY=0.5;entryDx=0;entryDy=0;strokeWidth=2;strokeColor=#F6832B;" edge="1" parent="1">
          <mxGeometry relative="1" as="geometry">
            <mxPoint x="900" y="423" as="sourcePoint" />
            <mxPoint x="520" y="423" as="targetPoint" />
          </mxGeometry>
        </mxCell>
        <mxCell id="zF56eZWgSTWICu8YLRrB-15" value="&lt;b&gt;&lt;font style=&quot;font-size: 16px;&quot;&gt;通过&lt;font color=&quot;#ff0000&quot;&gt;请求头&lt;/font&gt;，自动将Cookie发送给服务器&lt;/font&gt;&lt;/b&gt;" style="text;html=1;strokeColor=none;fillColor=none;align=center;verticalAlign=middle;whiteSpace=wrap;rounded=0;" vertex="1" parent="1">
          <mxGeometry x="555" y="371" width="310" height="30" as="geometry" />
        </mxCell>
        <mxCell id="zF56eZWgSTWICu8YLRrB-16" value="&lt;span style=&quot;font-size: 16px;&quot;&gt;&lt;b&gt;响应当前用户对应的内容&lt;/b&gt;&lt;/span&gt;" style="text;html=1;strokeColor=none;fillColor=none;align=center;verticalAlign=middle;whiteSpace=wrap;rounded=0;" vertex="1" parent="1">
          <mxGeometry x="570" y="423" width="280" height="30" as="geometry" />
        </mxCell>
      </root>
    </mxGraphModel>
  </diagram>
</mxfile>
